<svg width="17" height="22" viewBox="0 0 17 22" fill="none" xmlns="http://www.w3.org/2000/svg">
<path d="M12.829 15.1426C12.5604 15.6131 12.2694 16.061 11.9784 16.4867C13.8585 16.9123 14.9776 17.6515 14.9776 18.2115C14.9776 19.0403 12.4932 20.2946 8.7329 20.2946C4.97264 20.2946 2.48818 19.0403 2.48818 18.2115C2.48818 17.6515 3.60731 16.9346 5.4874 16.4867C5.19638 16.061 4.90549 15.6131 4.63682 15.1426C2.48802 15.7026 0.943787 16.7105 0.943787 18.2113C0.943787 20.5857 4.86073 21.8401 8.7329 21.8401C12.6051 21.8401 16.522 20.5857 16.522 18.2113C16.522 16.7107 14.9776 15.7026 12.829 15.1426Z" fill="white"/>
<path d="M9.42684 17.5841C11.0161 15.232 14.821 9.34086 14.821 6.67526C14.821 3.2929 12.0904 0.560059 8.73299 0.560059C5.37561 0.560059 2.62256 3.29286 2.62256 6.67526C2.62256 9.3409 6.45005 15.2321 8.03913 17.5841C8.3748 18.0545 9.09111 18.0545 9.4268 17.5842L9.42684 17.5841ZM5.89041 6.67526C5.89041 5.1073 7.16629 3.83042 8.73303 3.83042C10.2998 3.83042 11.5756 5.1073 11.5756 6.67526C11.5756 8.24322 10.2998 9.49774 8.73303 9.49774C7.16629 9.49774 5.89041 8.22086 5.89041 6.67526Z" fill="white"/>
</svg>
