<svg width="28" height="28" viewBox="0 0 28 28" fill="none" xmlns="http://www.w3.org/2000/svg">
<path d="M23.8607 9.13268C23.7459 9.20454 21.0131 10.7212 21.0131 14.084C21.1419 17.9191 24.4618 19.264 24.5187 19.264C24.4618 19.3359 24.0175 21.0961 22.7015 22.9413C21.6571 24.5308 20.4979 26.1333 18.7377 26.1333C17.0633 26.1333 16.4622 25.074 14.5302 25.074C12.4554 25.074 11.8683 26.1333 10.2798 26.1333C8.51952 26.1333 7.27446 24.4449 6.17312 22.8704C4.74232 20.8096 3.52619 17.5756 3.48326 14.4704C3.45432 12.8249 3.76979 11.2075 4.57059 9.83361C5.70086 7.91561 7.71872 6.61361 9.92232 6.57068C11.6107 6.51374 13.1134 7.72988 14.1438 7.72988C15.1313 7.72988 16.9774 6.57068 19.0662 6.57068C19.9678 6.57161 22.3721 6.84321 23.8607 9.13268ZM14.001 6.24214C13.7005 4.73948 14.5302 3.23681 15.303 2.27828C16.2905 1.11908 17.8501 0.332275 19.195 0.332275C19.2809 1.83494 18.7367 3.30868 17.7642 4.38201C16.8915 5.54121 15.3889 6.41388 14.001 6.24214Z" fill="white"/>
</svg>
