<svg width="20" height="18" viewBox="0 0 20 18" fill="none" xmlns="http://www.w3.org/2000/svg">
<path d="M19.8191 8.77783C19.8128 7.94971 18.8762 7.45547 18.1446 7.84191L17.6508 8.10238L11.6283 11.2874H11.6213L11.0267 11.6094C10.407 11.9453 9.65934 11.9461 9.03891 11.6122L8.00519 11.0564L2.75929 8.22847C2.71729 8.2144 2.68232 8.18643 2.64032 8.1655L2.6333 8.15847L1.92121 7.77628C1.19022 7.38362 0.270462 7.87425 0.235489 8.7038C0.234084 8.73396 0.233459 8.76474 0.233459 8.79552V15.5507C0.233459 16.7057 1.17772 17.6507 2.33182 17.6507H17.7198C18.8809 17.6507 19.8182 16.7057 19.8182 15.5507V8.79552V8.77802L19.8191 8.77783Z" fill="white"/>
<path d="M15.6224 0.150086H4.43112C3.27703 0.150086 2.33276 1.09509 2.33276 2.25009V6.45009L3.00428 6.80712C3.11622 6.84212 3.22817 6.89118 3.33309 6.94712L3.73184 7.16415L8.0057 9.46711L9.69846 10.3771C9.90829 10.4891 10.1531 10.4891 10.3629 10.3771L11.1044 9.97805L16.3223 7.16397L16.7279 6.94694C16.8258 6.891 16.9307 6.84897 17.0357 6.81397L17.721 6.4499V2.2499C17.721 1.0949 16.7838 0.149902 15.6227 0.149902L15.6224 0.150086ZM12.8246 7.15009H7.22894C6.84424 7.15009 6.52949 6.83509 6.52949 6.45009C6.52949 6.06509 6.84424 5.75009 7.22894 5.75009H12.8246C13.2163 5.75009 13.524 6.06509 13.524 6.45009C13.524 6.83509 13.2163 7.15009 12.8246 7.15009ZM14.2235 4.35009H5.83003C5.44533 4.35009 5.13058 4.03509 5.13058 3.65009C5.13058 3.26509 5.44533 2.95009 5.83003 2.95009H14.2235C14.6152 2.95009 14.9229 3.26509 14.9229 3.65009C14.9229 4.03509 14.6152 4.35009 14.2235 4.35009Z" fill="white"/>
</svg>
