<svg width="16" height="11" viewBox="0 0 16 11" fill="none" xmlns="http://www.w3.org/2000/svg">
<path d="M13.8938 0.150086H2.69375C1.53875 0.150086 0.59375 1.09509 0.59375 2.25009V6.45009L1.26579 6.80712C1.37782 6.84212 1.48985 6.89118 1.59485 6.94712L1.99392 7.16415L6.27112 9.46711L7.9652 10.3771C8.1752 10.4891 8.4202 10.4891 8.6302 10.3771L9.37224 9.97805L14.5942 7.16397L15.0002 6.94694C15.0981 6.891 15.2031 6.84897 15.3081 6.81397L15.994 6.4499V2.2499C15.994 1.0949 15.0561 0.149902 13.894 0.149902L13.8938 0.150086ZM11.0938 7.15009H5.49375C5.10875 7.15009 4.79375 6.83509 4.79375 6.45009C4.79375 6.06509 5.10875 5.75009 5.49375 5.75009H11.0938C11.4858 5.75009 11.7938 6.06509 11.7938 6.45009C11.7938 6.83509 11.4858 7.15009 11.0938 7.15009ZM12.4938 4.35009H4.09375C3.70875 4.35009 3.39375 4.03509 3.39375 3.65009C3.39375 3.26509 3.70875 2.95009 4.09375 2.95009H12.4938C12.8858 2.95009 13.1938 3.26509 13.1938 3.65009C13.1938 4.03509 12.8858 4.35009 12.4938 4.35009Z" fill="#373A47"/>
</svg>
