<svg width="14" height="18" viewBox="0 0 14 18" fill="none" xmlns="http://www.w3.org/2000/svg">
<path d="M7.69437 17.5841C9.28485 15.232 13.0928 9.34086 13.0928 6.67526C13.0928 3.2929 10.36 0.560059 6.99997 0.560059C3.63997 0.560059 0.884766 3.29286 0.884766 6.67526C0.884766 9.3409 4.71525 15.2321 6.30557 17.5841C6.6415 18.0545 7.35837 18.0545 7.69433 17.5842L7.69437 17.5841ZM4.15517 6.67526C4.15517 5.1073 5.43205 3.83042 7.00001 3.83042C8.56797 3.83042 9.84485 5.1073 9.84485 6.67526C9.84485 8.24322 8.56797 9.49774 7.00001 9.49774C5.43205 9.49774 4.15517 8.22086 4.15517 6.67526Z" fill="#373A47"/>
</svg>
