<svg width="49" height="49" viewBox="0 0 49 49" fill="none" xmlns="http://www.w3.org/2000/svg">
<path d="M40.3557 30.8987H28.9247L34.9263 18.4973L35.9171 16.4475C36.0361 16.1279 36.1434 15.8025 36.236 15.4713C36.5276 14.4275 36.6947 13.332 36.6947 12.1949C36.6947 5.46045 31.2338 0 24.499 0C17.7641 0 12.3032 5.46019 12.3032 12.1949C12.3032 13.3317 12.4707 14.4272 12.7623 15.4713C12.8545 15.8025 12.9615 16.1279 13.0808 16.4475L14.072 18.4966L20.0719 30.8988H8.64264L0 49H49L40.3557 30.8987ZM24.4989 7.83188C26.9082 7.83188 28.8633 9.78593 28.8633 12.1949C28.8633 14.6056 26.9086 16.5583 24.4989 16.5583C22.0893 16.5583 20.1355 14.6046 20.1355 12.1949C20.1355 9.78593 22.0893 7.83188 24.4989 7.83188ZM17.5762 35.3743C19.6273 35.6532 20.8318 37.0843 22.307 38.8616C24.6517 41.6845 27.5696 45.1989 35.3549 45.1989C40.1162 45.1989 43.0317 44.3342 44.0407 42.6313L46.2569 47.2722L17.5762 47.2719V35.3743ZM41.1303 36.534C38.0983 36.5415 34.7182 36.5135 33.0591 34.8582C32.4887 34.2878 32.1708 33.5471 32.0713 32.6273H39.2668L41.1303 36.534ZM24.4992 40.0467L28.0894 32.6277H31.2096C31.3204 33.7816 31.7227 34.7444 32.449 35.4707C34.2776 37.2959 37.6357 37.3988 40.7267 37.3988H41.3258L41.5439 37.3978L43.5338 41.5646C43.5058 41.7171 43.4651 41.8685 43.3968 42.0158C42.9101 43.0744 41.12 44.3345 35.3574 44.3345C27.978 44.3345 25.3194 41.134 22.9744 38.309C21.4725 36.502 20.0349 34.8025 17.5784 34.5119V32.628H20.9109L24.4992 40.0467ZM9.7318 32.6277H16.7123V34.4549C12.9392 34.4847 11.235 35.7694 9.86541 36.8079C8.96373 37.4905 8.22208 38.0466 7.07635 38.1908L9.7318 32.6277ZM6.64883 39.0846C8.33836 39.0357 9.33805 38.2902 10.3871 37.4969C11.7191 36.4876 13.235 35.3501 16.7124 35.3223V47.2722H2.74038L6.64883 39.0846Z" fill="black"/>
</svg>
