<svg width="54" height="52" viewBox="0 0 54 52" fill="none" xmlns="http://www.w3.org/2000/svg">
<path d="M41.8424 15.0396L37.0602 10.8773C40.1727 6.76581 37.6168 1 32.942 1C28.4781 1 24.0639 5.51001 26.1343 10.0221C27.7924 13.6436 33.0452 15.1596 36.5573 11.4712L41.3608 15.6523C39.1641 18.7327 40.2649 22.2999 43.0481 24.0379C43.0481 24.0379 43.39 24.2639 43.9866 24.5133C43.9096 24.6165 38.6209 32.5169 38.5495 32.6246C35.6401 30.5465 31.8021 31.9602 29.7762 34.2586C26.3466 31.8607 23.171 29.0884 20.3263 26.0127C20.4531 25.8067 20.5772 25.5988 20.6805 25.3788C22.6427 21.1905 19.8508 16.7454 15.9518 16.6749C11.4475 16.6029 6.93794 21.1404 9.02629 25.697C9.76653 27.3103 11.2631 28.5281 12.9774 29.0287L9.30494 38.5248C4.89489 37.6411 -0.765737 42.4407 1.52772 47.4457C3.70694 52.1986 10.7663 52.2755 13.1812 47.1274C14.0277 45.3216 14.0206 43.1542 13.1652 41.4705C12.5151 40.1916 11.3581 39.2097 10.0557 38.7369L13.5088 29.8063C13.6633 29.691 13.703 29.3995 13.7265 29.1961C16.1518 29.5919 18.4608 28.4476 19.8706 26.6614C22.716 29.7208 25.8823 32.4818 29.3004 34.8753C26.2504 39.2093 29.7837 44.2052 34.3482 44.2052C34.4293 44.2052 34.5098 44.2037 34.5902 44.2003C40.2622 43.963 43.0634 36.8005 39.1521 33.1206C39.2561 32.965 44.6648 24.9519 44.673 24.7644C47.9358 25.7136 51.1209 23.7775 52.3698 21.1136C53.2163 19.3086 53.2092 17.1405 52.3537 15.4567C50.2261 11.2778 44.8282 11.6918 41.8426 15.0397L41.8424 15.0396ZM37.53 7.98208L36.7494 7.19482C36.8283 7.11534 37.5008 6.44033 37.5756 6.35709L37.6202 6.40191C37.6598 6.92474 37.6306 7.45731 37.53 7.98208ZM37.2424 4.77956C37.3707 5.09521 37.4683 5.42443 37.5341 5.76381L36.8997 5.12497L37.2424 4.77956ZM29.4832 12.2898L30.0057 11.7636L30.9857 12.7504C30.4654 12.6683 29.96 12.5131 29.4832 12.2898ZM31.3445 12.7968C31.3998 12.7207 31.4021 12.616 31.3332 12.5474L30.2803 11.4871L30.9334 10.8294L31.7873 11.6894C31.5816 11.8965 31.205 12.1632 31.3983 12.358C31.4739 12.4341 31.5966 12.4348 31.6721 12.358L32.0612 11.9662C32.1491 12.0547 32.7468 12.6921 32.8646 12.7117C32.222 12.8435 31.8378 12.8405 31.3445 12.7968ZM32.2878 9.46543L33.1418 10.3254L32.0619 11.4128L31.208 10.5529L32.2878 9.46543ZM33.0322 12.666C33.1077 12.5899 33.1077 12.4664 33.0322 12.3903L32.3357 11.6889L33.4155 10.6015L34.0686 11.2592L33.9542 11.3744C33.7731 11.5567 34.0477 11.8325 34.228 11.6502L34.3424 11.5349C34.4318 11.6249 34.5253 11.7507 34.6364 11.7507C34.8077 11.7507 34.8956 11.5406 34.7737 11.4178L34.6162 11.2592L35.1444 10.7273L35.6748 11.2614C34.9211 11.947 34.004 12.4336 33.0322 12.666ZM34.8717 10.4519L34.3436 10.9838L33.6905 10.3261L34.2187 9.79423L34.8717 10.4519ZM34.4921 9.51775L35.2963 8.70789L35.9494 9.36557L35.1452 10.1754L34.4921 9.51775ZM35.9498 10.9853L35.4201 10.4519L36.2243 9.64208L36.4488 9.8681C36.4869 9.90652 36.5367 9.92535 36.586 9.92535C36.6354 9.92535 36.6852 9.90652 36.7233 9.8681C36.7989 9.79201 36.7989 9.66846 36.7233 9.59236L36.4989 9.36635L36.8643 8.99834C36.9399 8.92225 36.9399 8.7987 36.8643 8.72261C36.7888 8.64652 36.6661 8.64652 36.5905 8.72261L36.2251 9.09062L35.572 8.43294C35.7134 8.29056 35.8638 8.17039 35.7108 8.01634C35.5589 7.86341 35.4396 8.0137 35.2971 8.15608L35.1834 8.04157C35.0023 7.85926 34.7274 8.13499 34.9095 8.31731L35.0233 8.43182L34.2198 9.24092L33.5293 8.54557C33.349 8.36402 33.0734 8.63899 33.2555 8.8213L33.946 9.51665L33.4179 10.0485L32.5639 9.18856L33.9337 7.80913C34.114 7.62757 33.8409 7.34996 33.6599 7.5334L30.9357 10.2767C30.7693 10.1091 30.6148 9.89289 30.4476 10.0609C30.2804 10.2285 30.4955 10.3848 30.6619 10.5525L30.0066 11.2113L29.4167 10.6172C29.2364 10.4357 28.9607 10.7107 29.1429 10.893L29.7328 11.487L29.1208 12.1032C28.133 11.551 27.3074 10.7182 26.8388 9.6951C24.1666 3.87124 33.9977 -1.62959 37.0761 4.39485L36.622 4.85289C36.4361 4.69807 36.2034 4.94367 36.3594 5.12447C36.2057 5.30113 36.4301 5.55578 36.622 5.39606L37.3076 6.08727C37.2347 6.15205 36.5445 6.84966 36.4757 6.91935C36.2524 6.69447 35.9169 6.22136 35.7119 6.4259C35.5088 6.63043 35.9794 6.97095 36.2019 7.19508L36.1133 7.28435C35.9913 7.40714 36.0792 7.61733 36.2505 7.61733C36.2999 7.61733 36.3497 7.5985 36.3878 7.56008L36.4765 7.4708L37.2758 8.2769C37.314 8.31532 37.3626 8.33415 37.4131 8.33415C37.4284 8.33415 37.4415 8.32021 37.4561 8.31607C37.2163 9.26153 36.797 10.114 35.9499 10.9852L35.9498 10.9853ZM5.05502 49.805L5.76197 49.093C5.85959 49.1913 6.55084 49.9326 6.67502 49.9326C6.84634 49.9326 6.93423 49.7225 6.8123 49.5997L6.0354 48.8173L6.52278 48.3265L7.3296 49.139C7.12649 49.3435 6.75843 49.6031 6.95107 49.7967C7.02662 49.8728 7.14931 49.8735 7.22487 49.7967L7.60341 49.4155C7.69505 49.5078 8.04628 49.9063 8.17046 49.9063C8.34178 49.9063 8.42968 49.6961 8.30774 49.5733L7.87721 49.1397L8.80672 48.2037L9.4901 48.8919C9.32029 49.0629 9.08875 49.2305 9.25856 49.4008C9.33412 49.4769 9.4568 49.4776 9.53237 49.4008L9.7639 49.1676L10.0302 49.4358C8.39001 50.3971 6.64811 50.4823 5.05502 49.805ZM9.08089 47.9272L9.78934 47.2138L10.4727 47.9019L9.76428 48.6154L9.08089 47.9272ZM10.3766 49.2331L10.0377 48.8919L10.7461 48.1784C10.8314 48.2643 11.0775 48.5359 11.1823 48.5702C10.9298 48.8116 10.6642 49.0384 10.3766 49.2331ZM12.9433 45.2893C12.9093 45.1782 12.3299 44.6226 12.248 44.5398L13.0118 43.7706C13.0548 44.2723 13.0301 44.7839 12.9433 45.2893ZM12.9212 43.1416L12.493 42.7103L12.7398 42.4617C12.8165 42.6828 12.8752 42.9099 12.9212 43.1416ZM12.4754 41.8251C12.515 41.9038 12.5453 41.9886 12.5809 42.0696L12.2192 42.4338L12.086 42.2997C11.9057 42.1182 11.6301 42.3932 11.8122 42.5755L12.0243 42.789C12.0542 42.8855 12.0445 42.8764 12.1414 42.9069L12.7312 43.501L11.9742 44.2634L11.6443 43.9319C11.568 43.855 11.4453 43.8565 11.3705 43.9319C11.2949 44.008 11.2949 44.1315 11.3705 44.2076L11.7004 44.5391L11.2242 45.0194C11.1487 45.0954 11.1487 45.219 11.2242 45.2951C11.2624 45.3335 11.3121 45.3523 11.3615 45.3523C11.4109 45.3523 11.4606 45.3335 11.4988 45.2951L11.9757 44.8148L12.6362 45.4793C12.6744 45.5177 12.7241 45.5365 12.7735 45.5365C12.8229 45.5365 12.8726 45.5177 12.9108 45.4793C12.9149 45.4751 12.9134 45.4687 12.9171 45.4638C12.6849 46.6101 12.1859 47.5201 11.4116 48.3397C11.3768 48.235 11.1078 47.9864 11.0226 47.9013L11.6222 47.2975C11.6977 47.2214 11.6977 47.0978 11.6222 47.0218C11.5466 46.9457 11.4239 46.9457 11.3484 47.0218L10.7488 47.6256L10.0654 46.9374L10.7364 46.2616C10.812 46.1855 10.812 46.062 10.7364 45.9859C10.6609 45.9098 10.5382 45.9098 10.4626 45.9859L9.79157 46.6616C9.5275 46.3957 9.25369 46.6714 9.51777 46.9374L8.80932 47.6508L8.2591 47.0967C8.07881 46.9151 7.80314 47.1901 7.9853 47.3724L8.53552 47.9265L7.60601 48.8626L6.79919 48.0501L8.11469 46.7253C8.19025 46.6492 8.19025 46.5257 8.11469 46.4496C8.03913 46.3735 7.91645 46.3735 7.84089 46.4496L6.44677 47.8535C6.35101 47.8836 6.35999 47.8739 6.32969 47.9714L5.76414 48.5409L5.31153 48.0852C5.12787 47.9017 4.85819 48.1808 5.03773 48.3609L5.49033 48.8167L4.69324 49.6194C3.62575 49.0713 2.73359 48.2023 2.23537 47.1164C-0.440536 41.2869 9.40884 35.7897 12.4755 41.8252L12.4754 41.8251ZM19.9575 21.3136L20.311 20.9576C20.3962 21.2514 20.4636 21.5509 20.4995 21.8594L19.9575 21.3136ZM10.1406 20.587C12.53 16.8978 18.4239 15.9821 20.1748 20.5429L19.6834 21.0379C19.4649 20.8179 19.135 20.3515 18.9326 20.5576C18.7295 20.7621 19.1892 21.0928 19.4096 21.3136L19.0441 21.6816C18.9222 21.8044 19.0101 22.0146 19.1814 22.0146C19.3048 22.0146 19.5951 21.6789 19.6845 21.5901L20.1962 22.1054C20.115 22.1739 19.564 22.7337 19.4892 22.809L18.7613 22.076C18.581 21.8944 18.3054 22.1694 18.4875 22.3517L19.2154 23.0847L18.5687 23.7368L17.9235 23.087C17.8479 23.0109 17.7252 23.0109 17.6497 23.087C17.5741 23.1631 17.5741 23.2866 17.6497 23.3627L18.2949 24.0125L18.2089 24.0991C18.0869 24.2219 18.1748 24.4321 18.3461 24.4321C18.3955 24.4321 18.4453 24.4133 18.4834 24.3748L18.5694 24.2882L19.0733 24.7956C19.0449 24.8046 19.0138 24.8069 18.9914 24.8299L18.039 25.7889L17.1967 24.9406L17.6605 24.4735C17.8408 24.292 17.5689 24.0162 17.3867 24.1978L16.9229 24.6649L16.8645 24.6061C16.7897 24.53 16.667 24.53 16.5907 24.6061C16.5152 24.6822 16.5152 24.8058 16.5907 24.8818L16.6491 24.9406L15.2475 26.3513C15.1776 26.2808 14.6423 25.7411 14.5716 25.6729L15.9552 24.2796C16.0307 24.2035 16.0307 24.0799 15.9552 24.0038C15.8796 23.9277 15.7569 23.9277 15.6814 24.0038L12.9871 26.7171L12.5663 26.2926C12.386 26.111 12.1103 26.386 12.2925 26.5683L12.7133 26.9928L11.9584 27.7529C9.45567 26.3144 8.4013 23.2701 10.1406 20.5871L10.1406 20.587ZM17.7626 26.0643L16.3617 27.4749L15.5194 26.6267L16.921 25.216L17.7626 26.0643ZM13.7098 28.3673C13.8104 28.3673 13.8594 28.2976 13.9323 28.2234L14.1777 28.4705C13.5295 28.4084 12.9022 28.2193 12.3179 27.9379L12.9834 27.2678L13.6578 27.9477L13.5717 28.0343C13.4506 28.1571 13.5385 28.3673 13.7098 28.3673ZM13.2583 26.992L14.2975 25.9456C14.3655 26.0175 14.9019 26.5558 14.9711 26.6262L13.9327 27.6711L13.2583 26.992ZM14.7441 28.4893L14.2062 27.9476L15.2446 26.9019L16.0869 27.7502L16.0843 27.7528C16.0087 27.8289 16.0087 27.9525 16.0843 28.0286C16.1224 28.067 16.1711 28.0858 16.2216 28.0858C16.2709 28.0858 16.3207 28.067 16.3588 28.0286L16.3615 28.0259L16.5092 28.1747C15.8206 28.4196 15.3242 28.481 14.7441 28.4893ZM16.8956 28.012L16.6356 27.751L18.0365 26.3403L18.4775 26.7844C18.5156 26.8229 18.5642 26.8417 18.6147 26.8417C18.6439 26.8417 18.6701 26.8213 18.6967 26.8074C18.1696 27.3152 17.557 27.7235 16.8956 28.012ZM18.7748 26.7294C18.8107 26.6567 18.8122 26.5697 18.752 26.5094L18.311 26.0653L19.2633 25.1063C19.2917 25.0777 19.2992 25.04 19.3056 25.0031C19.334 25.0186 19.3609 25.0393 19.3924 25.0393C19.4417 25.0393 19.4915 25.0204 19.5296 24.982C19.6052 24.9059 19.6052 24.7824 19.5296 24.7063L18.8414 24.0132L19.4881 23.3612C19.579 23.4527 19.8457 23.7631 19.9676 23.7631C20.017 23.7631 20.0668 23.7443 20.1049 23.7058C20.2927 23.5167 19.9594 23.2828 19.763 23.0847L20.4554 22.3875C20.5138 22.3287 20.513 22.2458 20.4816 22.1739C20.4939 22.1664 20.5093 22.1682 20.5197 22.1584C20.5807 23.1314 20.4075 24.1386 19.9826 25.0456C19.8663 25.2935 19.7324 25.5323 19.5828 25.7606C19.5779 25.7647 19.5723 25.7655 19.5674 25.7696C19.5259 25.808 19.496 25.854 19.4758 25.9022C19.2663 26.1998 19.0307 26.474 18.7748 26.7294ZM40.1888 37.4707L39.9718 37.2522L40.1686 37.0541C40.1779 37.1935 40.1895 37.331 40.1888 37.4707ZM40.1132 36.5584L39.698 36.9765L38.914 36.187C38.8385 36.1109 38.7158 36.1109 38.6402 36.187C38.5646 36.2631 38.5646 36.3866 38.6402 36.4627L39.4242 37.2522L38.6402 38.0418C38.5646 38.1178 38.5646 38.2414 38.6402 38.3175C38.7158 38.3936 38.8385 38.3943 38.914 38.3175L39.698 37.528C39.7736 37.6041 40.0736 37.9159 40.1618 37.9762C39.8791 41.1689 37.1777 43.3099 34.559 43.4188C33.5311 43.4636 32.51 43.1856 31.6227 42.679L32.5238 41.7716L33.9227 43.1819C33.9608 43.2203 34.0095 43.2391 34.06 43.2391C34.1093 43.2391 34.1591 43.2203 34.1972 43.1819C34.2728 43.1058 34.2728 42.9822 34.1972 42.9061L34.1093 42.8176C34.1101 42.8168 34.1119 42.8168 34.1134 42.8161L35.4279 41.4924L35.9631 42.0314L35.4586 42.5396C35.383 42.6157 35.383 42.7392 35.4586 42.8153C35.4967 42.8537 35.5453 42.8726 35.5958 42.8726C35.6463 42.8726 35.695 42.8537 35.7331 42.8153L36.2377 42.3072L36.3798 42.4503C36.418 42.4887 36.4666 42.5076 36.5171 42.5076C36.5665 42.5076 36.6162 42.4887 36.6544 42.4503C36.7299 42.3742 36.7299 42.2507 36.6544 42.1746L36.5122 42.0314L37.9131 40.6208C38.0107 40.7191 38.467 41.2231 38.5916 41.2231C38.7629 41.2231 38.8508 41.0129 38.7289 40.8901L38.1869 40.3443C38.3885 40.1412 38.7442 39.8911 38.5534 39.6987C38.3627 39.5065 38.1139 39.8655 37.9123 40.0678L37.3771 39.5288L37.8906 39.0116C37.9662 38.9355 37.9662 38.812 37.8906 38.7359C37.8151 38.6598 37.6924 38.6598 37.6168 38.7359L37.07 39.2866C36.9368 39.2692 36.8467 39.3611 36.8627 39.4952L35.4286 40.9395C35.3504 40.8607 34.4691 39.9714 34.3895 39.8953L35.9347 38.34C36.0102 38.2639 36.0102 38.1404 35.9347 38.0643C35.8591 37.9882 35.7364 37.9882 35.6609 38.0643L32.5256 41.2208L31.9926 40.684C31.8123 40.5025 31.5366 40.7775 31.7188 40.9598L32.2518 41.4965L31.2883 42.4668C26.2941 39.1366 29.9893 32.3784 35.4888 32.3784C35.5236 32.3784 35.5595 32.3784 35.5943 32.3791C37.514 32.4138 39.6987 33.9024 40.1132 36.558L40.1132 36.5584ZM34.1161 40.17C34.1542 40.2118 35.1129 41.1765 35.1529 41.2164L33.8385 42.5401C33.8377 42.5409 33.8377 42.5427 33.837 42.5443L32.7979 41.4978L34.1161 40.17ZM37.1022 39.8057L37.6374 40.3447L36.2366 41.7554L35.7013 41.2164L37.1022 39.8057ZM51.6523 17.5324L51.221 17.0977L51.9141 16.3998C52.1083 16.9486 52.2081 17.5388 52.2205 18.1377C52.1741 18.0413 51.9863 17.8684 51.9108 17.7923C52.0432 17.6085 51.8345 17.3998 51.6523 17.5324ZM41.8287 16.3214C44.1168 12.7893 49.7925 11.6871 51.75 16.0129L50.9473 16.8212C50.8321 16.7052 50.7221 16.5986 50.5874 16.7346C50.4397 16.8834 50.5736 16.9964 50.7068 17.1312C50.6914 17.2548 50.767 17.358 50.914 17.3399L51.3714 17.8006L50.7801 18.3961L50.5826 18.1972C50.4023 18.0157 50.1266 18.2906 50.3088 18.473L50.5063 18.6719L50.0294 19.1521C49.8464 19.3363 50.1251 19.6071 50.3032 19.4278L50.7801 18.9476L51.4275 19.5996L50.5014 20.5323L49.5775 19.6019C49.5027 19.5258 49.38 19.5258 49.3037 19.6019C49.1649 19.7416 49.2794 19.8539 49.4036 19.9782C49.3273 19.9153 49.2177 19.9134 49.147 19.9857L48.0177 21.1229L47.4009 20.5018C47.3254 20.4257 47.2027 20.4257 47.1271 20.5018C47.0516 20.5778 47.0516 20.7014 47.1271 20.7775L47.7439 21.3986L46.7055 22.4443L45.8071 21.5395L46.9494 20.3891C47.1297 20.2076 46.8567 19.93 46.6756 20.1134L44.4444 22.3603L44.1631 22.077C44.0876 22.0009 43.9649 22.0009 43.8893 22.077C43.8138 22.1531 43.8138 22.2767 43.8893 22.3528L44.1706 22.636L43.4435 23.3683C41.0933 21.891 40.1357 18.934 41.8287 16.3214ZM47.6533 23.3995L46.9782 22.7196L48.0166 21.6739L48.6917 22.3538L47.6533 23.3995ZM48.2903 21.3982L49.4196 20.261C49.4903 20.1898 49.4888 20.0787 49.4271 20.0026L50.2275 20.8087L48.9666 22.0785L48.2903 21.3982ZM45.6155 23.5392L44.717 22.6344L45.5309 21.8148L46.4294 22.7196L45.6155 23.5392ZM43.795 23.563L44.4424 22.9109L45.4108 23.8861C45.4344 23.9852 45.4456 23.9965 45.544 24.0202C45.7916 24.2696 46.0048 24.0127 45.8787 23.8247L46.7028 22.9949L47.4112 23.7083C47.3862 23.9114 47.6121 23.9905 47.7329 23.8688L48.9639 22.6292L49.5545 23.224C47.814 24.3992 45.7205 24.5898 43.795 23.563ZM49.8527 22.9968C49.7966 22.9026 49.3163 22.4322 49.2393 22.3538L50.5002 21.084C50.5929 21.1774 50.9632 21.5956 51.0885 21.5956C51.1379 21.5956 51.1877 21.5767 51.2258 21.5383C51.3014 21.4622 51.3014 21.3387 51.2258 21.2626L50.7747 20.8083L51.7214 19.8549C51.9489 19.9472 52.0577 19.6824 51.926 19.5506L51.0534 18.6718L51.6448 18.0763C51.8714 18.3045 52.1007 18.5949 52.2249 18.2872C52.2208 19.1347 52.0364 19.9954 51.6691 20.7801C51.2569 21.66 50.6158 22.4137 49.8527 22.9968Z" fill="black" stroke="black" stroke-width="0.5"/>
</svg>
