<svg xmlns="http://www.w3.org/2000/svg" width="77.08" height="33.524" viewBox="0 0 77.08 33.524">
  <g id="Logo" transform="translate(-10.2 -11.1)">
    <g id="Group_3" data-name="Group 3" transform="translate(13.619 27.091)">
      <path id="Path_1" data-name="Path 1" d="M61.262,234.943,63.138,222.5h3.827v17.526h-2.6V227.455l-1.906,12.572h-2.6l-2.05-12.39v12.39H55.4V222.5h3.827l2.027,12.443Z" transform="translate(-55.4 -222.5)" fill="#373a47"/>
      <path id="Path_2" data-name="Path 2" d="M237.653,229.883h3.782v2.5h-3.782v5.136h4.758v2.5H234.9V222.5h7.511V225h-4.758Z" transform="translate(-221.322 -222.5)" fill="#373a47"/>
      <path id="Path_3" data-name="Path 3" d="M362.456,240.026a5.394,5.394,0,0,1-.25-2.156v-2.753c0-1.626-.552-2.231-1.8-2.231h-.953v7.133H356.7V222.5h4.153c2.852,0,4.085,1.324,4.085,4.032v1.377c0,1.8-.575,2.98-1.8,3.555,1.377.575,1.831,1.906,1.831,3.729v2.7a5.065,5.065,0,0,0,.3,2.126h-2.806Zm-3-15.022v5.386h1.074c1.029,0,1.649-.454,1.649-1.853v-1.725c0-1.248-.424-1.8-1.4-1.8h-1.324Z" transform="translate(-333.909 -222.5)" fill="#373a47"/>
      <path id="Path_4" data-name="Path 4" d="M489.8,222.5h2.753v17.526H489.8Z" transform="translate(-456.941 -222.5)" fill="#373a47"/>
      <path id="Path_5" data-name="Path 5" d="M552.6,222.5h4.357c2.753,0,4.107,1.528,4.107,4.334V235.7c0,2.806-1.354,4.334-4.107,4.334H552.6Zm2.753,2.5v12.519H556.9c.878,0,1.4-.454,1.4-1.7v-9.115c0-1.248-.529-1.7-1.4-1.7Z" transform="translate(-514.991 -222.5)" fill="#373a47"/>
      <path id="Path_6" data-name="Path 6" d="M687.7,222.5h2.753v17.526H687.7Z" transform="translate(-639.872 -222.5)" fill="#373a47"/>
      <path id="Path_7" data-name="Path 7" d="M750.637,240.026h-2.776l-.477-3.177H744l-.477,3.177H741l2.806-17.526h4.032l2.806,17.526Zm-6.286-5.56h2.655l-1.324-8.865-1.324,8.865Z" transform="translate(-689.14 -222.5)" fill="#373a47"/>
      <path id="Path_8" data-name="Path 8" d="M887.381,227.334v12.693H884.9V222.5h3.457l2.829,10.492V222.5h2.451v17.526h-2.829Z" transform="translate(-822.155 -222.5)" fill="#373a47"/>
    </g>
    <g id="yellow_hoarding" transform="translate(10.2 11.1)">
      <g id="Group_4" data-name="Group 4" transform="translate(0.033 6.793)">
        <ellipse id="Ellipse_2" data-name="Ellipse 2" cx="0.325" cy="0.242" rx="0.325" ry="0.242" transform="translate(0 0.565) rotate(-60)" fill="#373a47"/>
        <ellipse id="Ellipse_3" data-name="Ellipse 3" cx="0.325" cy="0.242" rx="0.325" ry="0.242" transform="translate(0.658 0.569) rotate(-60)" fill="#373a47"/>
        <ellipse id="Ellipse_4" data-name="Ellipse 4" cx="0.325" cy="0.242" rx="0.325" ry="0.242" transform="translate(1.312 0.566) rotate(-60)" fill="#373a47"/>
        <ellipse id="Ellipse_5" data-name="Ellipse 5" cx="0.325" cy="0.242" rx="0.325" ry="0.242" transform="translate(1.967 0.563) rotate(-60)" fill="#373a47"/>
        <ellipse id="Ellipse_6" data-name="Ellipse 6" cx="0.325" cy="0.242" rx="0.325" ry="0.242" transform="translate(2.625 0.567) rotate(-60)" fill="#373a47"/>
        <ellipse id="Ellipse_7" data-name="Ellipse 7" cx="0.325" cy="0.242" rx="0.325" ry="0.242" transform="translate(3.279 0.565) rotate(-60)" fill="#373a47"/>
        <ellipse id="Ellipse_8" data-name="Ellipse 8" cx="0.325" cy="0.242" rx="0.325" ry="0.242" transform="translate(3.93 0.569) rotate(-60)" fill="#373a47"/>
        <ellipse id="Ellipse_9" data-name="Ellipse 9" cx="0.325" cy="0.242" rx="0.325" ry="0.242" transform="translate(4.584 0.566) rotate(-60)" fill="#373a47"/>
        <ellipse id="Ellipse_10" data-name="Ellipse 10" cx="0.325" cy="0.242" rx="0.325" ry="0.242" transform="translate(5.242 0.57) rotate(-60)" fill="#373a47"/>
        <ellipse id="Ellipse_11" data-name="Ellipse 11" cx="0.325" cy="0.242" rx="0.325" ry="0.242" transform="translate(5.896 0.567) rotate(-60)" fill="#373a47"/>
        <ellipse id="Ellipse_12" data-name="Ellipse 12" cx="0.325" cy="0.242" rx="0.325" ry="0.242" transform="translate(6.551 0.565) rotate(-60)" fill="#373a47"/>
        <ellipse id="Ellipse_13" data-name="Ellipse 13" cx="0.325" cy="0.242" rx="0.325" ry="0.242" transform="translate(7.209 0.569) rotate(-60)" fill="#373a47"/>
        <ellipse id="Ellipse_14" data-name="Ellipse 14" cx="0.325" cy="0.242" rx="0.325" ry="0.242" transform="translate(7.863 0.566) rotate(-60)" fill="#373a47"/>
        <ellipse id="Ellipse_15" data-name="Ellipse 15" cx="0.325" cy="0.242" rx="0.325" ry="0.242" transform="translate(8.513 0.57) rotate(-60)" fill="#373a47"/>
        <ellipse id="Ellipse_16" data-name="Ellipse 16" cx="0.325" cy="0.242" rx="0.325" ry="0.242" transform="translate(9.168 0.567) rotate(-60)" fill="#373a47"/>
        <ellipse id="Ellipse_17" data-name="Ellipse 17" cx="0.325" cy="0.242" rx="0.325" ry="0.242" transform="translate(9.83 0.565) rotate(-60)" fill="#373a47"/>
        <ellipse id="Ellipse_18" data-name="Ellipse 18" cx="0.325" cy="0.242" rx="0.325" ry="0.242" transform="translate(10.48 0.569) rotate(-60)" fill="#373a47"/>
        <ellipse id="Ellipse_19" data-name="Ellipse 19" cx="0.325" cy="0.242" rx="0.325" ry="0.242" transform="translate(11.134 0.566) rotate(-60)" fill="#373a47"/>
        <ellipse id="Ellipse_20" data-name="Ellipse 20" cx="0.325" cy="0.242" rx="0.325" ry="0.242" transform="translate(11.793 0.57) rotate(-60)" fill="#373a47"/>
        <ellipse id="Ellipse_21" data-name="Ellipse 21" cx="0.325" cy="0.242" rx="0.325" ry="0.242" transform="translate(12.447 0.568) rotate(-60)" fill="#373a47"/>
        <ellipse id="Ellipse_22" data-name="Ellipse 22" cx="0.325" cy="0.242" rx="0.325" ry="0.242" transform="translate(13.101 0.565) rotate(-60)" fill="#373a47"/>
        <ellipse id="Ellipse_23" data-name="Ellipse 23" cx="0.325" cy="0.242" rx="0.325" ry="0.242" transform="translate(13.759 0.569) rotate(-60)" fill="#373a47"/>
        <ellipse id="Ellipse_24" data-name="Ellipse 24" cx="0.325" cy="0.242" rx="0.325" ry="0.242" transform="translate(14.414 0.566) rotate(-60)" fill="#373a47"/>
        <ellipse id="Ellipse_25" data-name="Ellipse 25" cx="0.325" cy="0.242" rx="0.325" ry="0.242" transform="translate(15.064 0.57) rotate(-60)" fill="#373a47"/>
        <ellipse id="Ellipse_26" data-name="Ellipse 26" cx="0.325" cy="0.242" rx="0.325" ry="0.242" transform="translate(15.718 0.568) rotate(-60)" fill="#373a47"/>
        <ellipse id="Ellipse_27" data-name="Ellipse 27" cx="0.325" cy="0.242" rx="0.325" ry="0.242" transform="translate(16.376 0.572) rotate(-60)" fill="#373a47"/>
        <ellipse id="Ellipse_28" data-name="Ellipse 28" cx="0.325" cy="0.242" rx="0.325" ry="0.242" transform="translate(17.031 0.569) rotate(-60)" fill="#373a47"/>
        <ellipse id="Ellipse_29" data-name="Ellipse 29" cx="0.325" cy="0.242" rx="0.325" ry="0.242" transform="translate(17.685 0.566) rotate(-60)" fill="#373a47"/>
        <ellipse id="Ellipse_30" data-name="Ellipse 30" cx="0.325" cy="0.242" rx="0.325" ry="0.242" transform="translate(18.343 0.57) rotate(-60)" fill="#373a47"/>
        <ellipse id="Ellipse_31" data-name="Ellipse 31" cx="0.325" cy="0.242" rx="0.325" ry="0.242" transform="translate(18.997 0.568) rotate(-60)" fill="#373a47"/>
        <ellipse id="Ellipse_32" data-name="Ellipse 32" cx="0.325" cy="0.242" rx="0.325" ry="0.242" transform="translate(19.648 0.572) rotate(-60)" fill="#373a47"/>
        <ellipse id="Ellipse_33" data-name="Ellipse 33" cx="0.325" cy="0.242" rx="0.325" ry="0.242" transform="translate(20.302 0.569) rotate(-60)" fill="#373a47"/>
        <ellipse id="Ellipse_34" data-name="Ellipse 34" cx="0.325" cy="0.242" rx="0.325" ry="0.242" transform="translate(20.964 0.566) rotate(-60)" fill="#373a47"/>
        <ellipse id="Ellipse_35" data-name="Ellipse 35" cx="0.325" cy="0.242" rx="0.325" ry="0.242" transform="translate(21.127 0.573) rotate(-60)" fill="#373a47"/>
      </g>
      <g id="Group_5" data-name="Group 5" transform="translate(47.516 3.62)">
        <ellipse id="Ellipse_36" data-name="Ellipse 36" cx="0.325" cy="0.242" rx="0.325" ry="0.242" transform="translate(0 4.891) rotate(-60)" fill="#373a47"/>
        <ellipse id="Ellipse_37" data-name="Ellipse 37" cx="0.325" cy="0.242" rx="0.325" ry="0.242" transform="translate(0.654 4.888) rotate(-60)" fill="#373a47"/>
        <ellipse id="Ellipse_38" data-name="Ellipse 38" cx="0.325" cy="0.242" rx="0.325" ry="0.242" transform="translate(1.305 4.884) rotate(-60)" fill="#373a47"/>
        <ellipse id="Ellipse_39" data-name="Ellipse 39" cx="0.325" cy="0.242" rx="0.325" ry="0.242" transform="translate(1.967 4.882) rotate(-60)" fill="#373a47"/>
        <ellipse id="Ellipse_40" data-name="Ellipse 40" cx="0.325" cy="0.242" rx="0.325" ry="0.242" transform="translate(2.621 4.879) rotate(-60)" fill="#373a47"/>
        <ellipse id="Ellipse_41" data-name="Ellipse 41" cx="0.325" cy="0.242" rx="0.325" ry="0.242" transform="translate(3.272 4.883) rotate(-60)" fill="#373a47"/>
        <ellipse id="Ellipse_42" data-name="Ellipse 42" cx="0.325" cy="0.242" rx="0.325" ry="0.242" transform="translate(3.933 4.88) rotate(-60)" fill="#373a47"/>
        <ellipse id="Ellipse_43" data-name="Ellipse 43" cx="0.325" cy="0.242" rx="0.325" ry="0.242" transform="translate(4.584 4.884) rotate(-60)" fill="#373a47"/>
        <ellipse id="Ellipse_44" data-name="Ellipse 44" cx="0.325" cy="0.242" rx="0.325" ry="0.242" transform="translate(5.238 4.882) rotate(-60)" fill="#373a47"/>
        <ellipse id="Ellipse_45" data-name="Ellipse 45" cx="0.325" cy="0.242" rx="0.325" ry="0.242" transform="translate(5.889 4.886) rotate(-60)" fill="#373a47"/>
        <ellipse id="Ellipse_46" data-name="Ellipse 46" cx="0.325" cy="0.242" rx="0.325" ry="0.242" transform="translate(6.551 4.883) rotate(-60)" fill="#373a47"/>
        <ellipse id="Ellipse_47" data-name="Ellipse 47" cx="0.325" cy="0.242" rx="0.325" ry="0.242" transform="translate(7.205 4.881) rotate(-60)" fill="#373a47"/>
        <ellipse id="Ellipse_48" data-name="Ellipse 48" cx="0.325" cy="0.242" rx="0.325" ry="0.242" transform="translate(7.855 4.884) rotate(-60)" fill="#373a47"/>
        <ellipse id="Ellipse_49" data-name="Ellipse 49" cx="0.325" cy="0.242" rx="0.325" ry="0.242" transform="translate(8.517 4.882) rotate(-60)" fill="#373a47"/>
        <ellipse id="Ellipse_50" data-name="Ellipse 50" cx="0.325" cy="0.242" rx="0.325" ry="0.242" transform="translate(9.168 4.886) rotate(-60)" fill="#373a47"/>
        <ellipse id="Ellipse_51" data-name="Ellipse 51" cx="0.325" cy="0.242" rx="0.325" ry="0.242" transform="translate(9.822 4.883) rotate(-60)" fill="#373a47"/>
        <ellipse id="Ellipse_52" data-name="Ellipse 52" cx="0.325" cy="0.242" rx="0.325" ry="0.242" transform="translate(10.476 4.881) rotate(-60)" fill="#373a47"/>
        <ellipse id="Ellipse_53" data-name="Ellipse 53" cx="0.325" cy="0.242" rx="0.325" ry="0.242" transform="translate(11.134 4.885) rotate(-60)" fill="#373a47"/>
        <ellipse id="Ellipse_54" data-name="Ellipse 54" cx="0.325" cy="0.242" rx="0.325" ry="0.242" transform="translate(11.789 4.882) rotate(-60)" fill="#373a47"/>
        <ellipse id="Ellipse_55" data-name="Ellipse 55" cx="0.325" cy="0.242" rx="0.325" ry="0.242" transform="translate(12.439 4.886) rotate(-60)" fill="#373a47"/>
        <ellipse id="Ellipse_56" data-name="Ellipse 56" cx="0.325" cy="0.242" rx="0.325" ry="0.242" transform="translate(13.101 4.883) rotate(-60)" fill="#373a47"/>
        <ellipse id="Ellipse_57" data-name="Ellipse 57" cx="0.325" cy="0.242" rx="0.325" ry="0.242" transform="translate(13.752 4.887) rotate(-60)" fill="#373a47"/>
        <ellipse id="Ellipse_58" data-name="Ellipse 58" cx="0.325" cy="0.242" rx="0.325" ry="0.242" transform="translate(14.406 4.885) rotate(-60)" fill="#373a47"/>
        <ellipse id="Ellipse_59" data-name="Ellipse 59" cx="0.325" cy="0.242" rx="0.325" ry="0.242" transform="translate(15.068 4.882) rotate(-60)" fill="#373a47"/>
        <ellipse id="Ellipse_60" data-name="Ellipse 60" cx="0.325" cy="0.242" rx="0.325" ry="0.242" transform="translate(15.718 4.886) rotate(-60)" fill="#373a47"/>
        <ellipse id="Ellipse_61" data-name="Ellipse 61" cx="0.325" cy="0.242" rx="0.325" ry="0.242" transform="translate(16.373 4.883) rotate(-60)" fill="#373a47"/>
        <ellipse id="Ellipse_62" data-name="Ellipse 62" cx="0.325" cy="0.242" rx="0.325" ry="0.242" transform="translate(17.023 4.887) rotate(-60)" fill="#373a47"/>
        <ellipse id="Ellipse_63" data-name="Ellipse 63" cx="0.325" cy="0.242" rx="0.325" ry="0.242" transform="translate(17.685 4.885) rotate(-60)" fill="#373a47"/>
        <ellipse id="Ellipse_64" data-name="Ellipse 64" cx="0.325" cy="0.242" rx="0.325" ry="0.242" transform="translate(18.339 4.882) rotate(-60)" fill="#373a47"/>
        <ellipse id="Ellipse_65" data-name="Ellipse 65" cx="0.325" cy="0.242" rx="0.325" ry="0.242" transform="translate(18.99 4.886) rotate(-60)" fill="#373a47"/>
        <ellipse id="Ellipse_66" data-name="Ellipse 66" cx="0.325" cy="0.242" rx="0.325" ry="0.242" transform="translate(19.652 4.883) rotate(-60)" fill="#373a47"/>
        <ellipse id="Ellipse_67" data-name="Ellipse 67" cx="0.325" cy="0.242" rx="0.325" ry="0.242" transform="translate(20.302 4.887) rotate(-60)" fill="#373a47"/>
        <ellipse id="Ellipse_68" data-name="Ellipse 68" cx="0.325" cy="0.242" rx="0.325" ry="0.242" transform="translate(20.957 4.885) rotate(-60)" fill="#373a47"/>
        <ellipse id="Ellipse_69" data-name="Ellipse 69" cx="0.325" cy="0.242" rx="0.325" ry="0.242" transform="translate(21.607 4.889) rotate(-60)" fill="#373a47"/>
        <ellipse id="Ellipse_70" data-name="Ellipse 70" cx="0.325" cy="0.242" rx="0.325" ry="0.242" transform="translate(22.269 4.886) rotate(-60)" fill="#373a47"/>
        <ellipse id="Ellipse_71" data-name="Ellipse 71" cx="0.325" cy="0.242" rx="0.325" ry="0.242" transform="translate(22.923 4.883) rotate(-60)" fill="#373a47"/>
        <ellipse id="Ellipse_72" data-name="Ellipse 72" cx="0.325" cy="0.242" rx="0.325" ry="0.242" transform="translate(23.574 4.887) rotate(-60)" fill="#373a47"/>
        <ellipse id="Ellipse_73" data-name="Ellipse 73" cx="0.325" cy="0.242" rx="0.325" ry="0.242" transform="translate(24.236 4.885) rotate(-60)" fill="#373a47"/>
        <ellipse id="Ellipse_74" data-name="Ellipse 74" cx="0.325" cy="0.242" rx="0.325" ry="0.242" transform="translate(24.886 4.889) rotate(-60)" fill="#373a47"/>
        <ellipse id="Ellipse_75" data-name="Ellipse 75" cx="0.325" cy="0.242" rx="0.325" ry="0.242" transform="translate(25.54 4.886) rotate(-60)" fill="#373a47"/>
        <ellipse id="Ellipse_76" data-name="Ellipse 76" cx="0.325" cy="0.242" rx="0.325" ry="0.242" transform="translate(26.202 4.884) rotate(-60)" fill="#373a47"/>
        <ellipse id="Ellipse_77" data-name="Ellipse 77" cx="0.325" cy="0.242" rx="0.325" ry="0.242" transform="translate(26.853 4.888) rotate(-60)" fill="#373a47"/>
        <ellipse id="Ellipse_78" data-name="Ellipse 78" cx="0.325" cy="0.242" rx="0.325" ry="0.242" transform="translate(27.507 4.885) rotate(-60)" fill="#373a47"/>
        <ellipse id="Ellipse_79" data-name="Ellipse 79" cx="0.325" cy="0.242" rx="0.325" ry="0.242" transform="translate(28.158 4.889) rotate(-60)" fill="#373a47"/>
        <ellipse id="Ellipse_80" data-name="Ellipse 80" cx="0.325" cy="0.242" rx="0.325" ry="0.242" transform="translate(28.82 4.886) rotate(-60)" fill="#373a47"/>
        <ellipse id="Ellipse_81" data-name="Ellipse 81" cx="0.325" cy="0.242" rx="0.325" ry="0.242" transform="translate(24.232 4.068) rotate(-60)" fill="#373a47"/>
        <ellipse id="Ellipse_82" data-name="Ellipse 82" cx="0.325" cy="0.242" rx="0.325" ry="0.242" transform="translate(23.577 4.071) rotate(-60)" fill="#373a47"/>
        <ellipse id="Ellipse_83" data-name="Ellipse 83" cx="0.325" cy="0.242" rx="0.325" ry="0.242" transform="translate(24.89 4.072) rotate(-60)" fill="#373a47"/>
        <ellipse id="Ellipse_84" data-name="Ellipse 84" cx="0.325" cy="0.242" rx="0.325" ry="0.242" transform="translate(25.544 4.069) rotate(-60)" fill="#373a47"/>
        <ellipse id="Ellipse_85" data-name="Ellipse 85" cx="0.325" cy="0.242" rx="0.325" ry="0.242" transform="translate(26.198 4.067) rotate(-60)" fill="#373a47"/>
        <ellipse id="Ellipse_86" data-name="Ellipse 86" cx="0.325" cy="0.242" rx="0.325" ry="0.242" transform="translate(26.856 4.071) rotate(-60)" fill="#373a47"/>
        <ellipse id="Ellipse_87" data-name="Ellipse 87" cx="0.325" cy="0.242" rx="0.325" ry="0.242" transform="translate(27.511 4.068) rotate(-60)" fill="#373a47"/>
        <ellipse id="Ellipse_88" data-name="Ellipse 88" cx="0.325" cy="0.242" rx="0.325" ry="0.242" transform="translate(28.161 4.072) rotate(-60)" fill="#373a47"/>
        <ellipse id="Ellipse_89" data-name="Ellipse 89" cx="0.325" cy="0.242" rx="0.325" ry="0.242" transform="translate(28.816 4.069) rotate(-60)" fill="#373a47"/>
        <path id="Path_9" data-name="Path 9" d="M908.332,59.7c-.121-.068-.136-.416-.045-.567a.256.256,0,1,1,.424.25c-.091.159-.257.393-.378.325" transform="translate(-887.816 -58.952)" fill="#373a47"/>
        <path id="Path_10" data-name="Path 10" d="M916.932,59.7c-.121-.068-.136-.416-.045-.567a.256.256,0,1,1,.424.25c-.091.159-.257.393-.378.325" transform="translate(-895.765 -58.952)" fill="#373a47"/>
        <path id="Path_11" data-name="Path 11" d="M925.632,59.719c-.121-.068-.136-.416-.045-.567a.3.3,0,0,1,.378-.159.294.294,0,0,1,.045.408c-.091.159-.257.393-.378.325" transform="translate(-903.807 -58.966)" fill="#373a47"/>
        <path id="Path_12" data-name="Path 12" d="M934.232,59.7c-.121-.068-.136-.416-.045-.567a.256.256,0,1,1,.424.25c-.091.159-.257.393-.378.325" transform="translate(-911.756 -58.952)" fill="#373a47"/>
        <path id="Path_13" data-name="Path 13" d="M942.932,59.7c-.121-.068-.136-.416-.045-.567a.256.256,0,1,1,.424.25c-.091.159-.257.393-.378.325" transform="translate(-919.798 -58.952)" fill="#373a47"/>
        <path id="Path_14" data-name="Path 14" d="M951.632,59.719c-.121-.068-.136-.416-.045-.567a.3.3,0,0,1,.378-.159.294.294,0,0,1,.045.408c-.091.159-.257.393-.378.325" transform="translate(-927.84 -58.966)" fill="#373a47"/>
        <path id="Path_15" data-name="Path 15" d="M960.232,59.719c-.121-.068-.136-.416-.045-.567a.3.3,0,0,1,.378-.159.294.294,0,0,1,.045.408c-.091.159-.257.393-.378.325" transform="translate(-935.79 -58.966)" fill="#373a47"/>
        <path id="Path_16" data-name="Path 16" d="M968.932,59.7c-.121-.068-.136-.416-.045-.567a.256.256,0,1,1,.424.25c-.091.159-.257.393-.378.325" transform="translate(-943.832 -58.952)" fill="#373a47"/>
        <path id="Path_17" data-name="Path 17" d="M908.332,72.7c-.121-.068-.136-.416-.045-.567a.256.256,0,1,1,.424.25c-.091.159-.257.393-.378.325" transform="translate(-887.816 -70.969)" fill="#373a47"/>
        <path id="Path_18" data-name="Path 18" d="M916.932,72.7c-.121-.068-.136-.416-.045-.567a.256.256,0,1,1,.424.25c-.091.159-.257.393-.378.325" transform="translate(-895.765 -70.969)" fill="#373a47"/>
        <path id="Path_19" data-name="Path 19" d="M925.632,72.7c-.121-.068-.136-.416-.045-.567a.256.256,0,1,1,.424.25c-.091.159-.257.393-.378.325" transform="translate(-903.807 -70.969)" fill="#373a47"/>
        <path id="Path_20" data-name="Path 20" d="M934.232,72.7c-.121-.068-.136-.416-.045-.567a.256.256,0,1,1,.424.25c-.091.159-.257.393-.378.325" transform="translate(-911.756 -70.969)" fill="#373a47"/>
        <path id="Path_21" data-name="Path 21" d="M942.932,72.7c-.121-.068-.136-.416-.045-.567a.256.256,0,1,1,.424.25c-.091.159-.257.393-.378.325" transform="translate(-919.798 -70.969)" fill="#373a47"/>
        <path id="Path_22" data-name="Path 22" d="M951.632,72.7c-.121-.068-.136-.416-.045-.567a.256.256,0,1,1,.424.25c-.091.159-.257.393-.378.325" transform="translate(-927.84 -70.969)" fill="#373a47"/>
        <path id="Path_23" data-name="Path 23" d="M960.232,72.719c-.121-.068-.136-.416-.045-.567a.3.3,0,0,1,.378-.159.294.294,0,0,1,.045.408c-.091.159-.257.393-.378.325" transform="translate(-935.79 -70.983)" fill="#373a47"/>
        <path id="Path_24" data-name="Path 24" d="M968.932,72.7c-.121-.068-.136-.416-.045-.567a.256.256,0,1,1,.424.25c-.091.159-.257.393-.378.325" transform="translate(-943.832 -70.969)" fill="#373a47"/>
        <ellipse id="Ellipse_90" data-name="Ellipse 90" cx="0.325" cy="0.242" rx="0.325" ry="0.242" transform="translate(24.235 3.251) rotate(-60)" fill="#373a47"/>
        <ellipse id="Ellipse_91" data-name="Ellipse 91" cx="0.325" cy="0.242" rx="0.325" ry="0.242" transform="translate(23.581 3.254) rotate(-60)" fill="#373a47"/>
        <ellipse id="Ellipse_92" data-name="Ellipse 92" cx="0.325" cy="0.242" rx="0.325" ry="0.242" transform="translate(22.93 3.25) rotate(-60)" fill="#373a47"/>
        <ellipse id="Ellipse_93" data-name="Ellipse 93" cx="0.325" cy="0.242" rx="0.325" ry="0.242" transform="translate(24.886 3.255) rotate(-60)" fill="#373a47"/>
        <ellipse id="Ellipse_94" data-name="Ellipse 94" cx="0.325" cy="0.242" rx="0.325" ry="0.242" transform="translate(25.548 3.252) rotate(-60)" fill="#373a47"/>
        <ellipse id="Ellipse_95" data-name="Ellipse 95" cx="0.325" cy="0.242" rx="0.325" ry="0.242" transform="translate(26.202 3.25) rotate(-60)" fill="#373a47"/>
        <ellipse id="Ellipse_96" data-name="Ellipse 96" cx="0.325" cy="0.242" rx="0.325" ry="0.242" transform="translate(26.852 3.254) rotate(-60)" fill="#373a47"/>
        <ellipse id="Ellipse_97" data-name="Ellipse 97" cx="0.325" cy="0.242" rx="0.325" ry="0.242" transform="translate(27.514 3.251) rotate(-60)" fill="#373a47"/>
        <ellipse id="Ellipse_98" data-name="Ellipse 98" cx="0.325" cy="0.242" rx="0.325" ry="0.242" transform="translate(28.165 3.255) rotate(-60)" fill="#373a47"/>
        <ellipse id="Ellipse_99" data-name="Ellipse 99" cx="0.325" cy="0.242" rx="0.325" ry="0.242" transform="translate(28.819 3.252) rotate(-60)" fill="#373a47"/>
      </g>
      <path id="Path_25" data-name="Path 25" d="M266.115,19.118H216.668L209.3,11.1h48.8Z" transform="translate(-194.24 -11.1)" fill="#373a47"/>
      <path id="Path_26" data-name="Path 26" d="M87.358,28.658H16.792L14.5,26.2H84.416Z" transform="translate(-14.175 -25.058)" fill="#e4e8f4"/>
      <path id="Path_27" data-name="Path 27" d="M633.028,83.642H602.083L601.1,82.5h30.453Z" transform="translate(-556.403 -77.099)" fill="#e4e8f4"/>
      <g id="white" transform="translate(19.001 4.251)">
        <line id="Line_1" data-name="Line 1" x2="41.406" transform="translate(0)" fill="none" stroke="#e4e8f4" stroke-width="1"/>
        <line id="Line_2" data-name="Line 2" x2="41.361" transform="translate(0.151 0.166)" fill="none" stroke="#e4e8f4" stroke-width="1"/>
        <line id="Line_3" data-name="Line 3" x2="41.316" transform="translate(0.31 0.333)" fill="none" stroke="#e4e8f4" stroke-width="1"/>
        <line id="Line_4" data-name="Line 4" x2="41.278" transform="translate(0.461 0.492)" fill="none" stroke="#e4e8f4" stroke-width="1"/>
        <line id="Line_5" data-name="Line 5" x2="41.308" transform="translate(0.537 0.658)" fill="none" stroke="#e4e8f4" stroke-width="1"/>
        <line id="Line_6" data-name="Line 6" x2="41.27" transform="translate(0.688 0.824)" fill="none" stroke="#e4e8f4" stroke-width="1"/>
        <line id="Line_7" data-name="Line 7" x2="41.308" transform="translate(0.764 0.983)" fill="none" stroke="#e4e8f4" stroke-width="1"/>
      </g>
      <line id="Line_8" data-name="Line 8" x2="21.278" transform="translate(0.008 6.709)" fill="none" stroke="#363a47" stroke-width="1"/>
      <line id="Line_9" data-name="Line 9" x2="61.066" transform="translate(0.008 7.859)" fill="none" stroke="#373a47" stroke-width="4.3"/>
      <path id="Path_28" data-name="Path 28" d="M85.683,128.092H12.326L10.2,125.8H83.058Z" transform="translate(-10.2 -117.124)" fill="#e4e8f4"/>
      <path id="Path_29" data-name="Path 29" d="M112.633,157.242H39.45L38.3,156.1h73.358Z" transform="translate(-36.174 -145.132)" fill="#373a47"/>
    </g>
    <g id="blue" transform="translate(10.238 15.351)">
      <line id="Line_10" data-name="Line 10" x2="49.341" transform="translate(21.134 2.466)" fill="none" stroke="#e4e8f4" stroke-width="1"/>
      <line id="Line_11" data-name="Line 11" x2="18.971" transform="translate(0 0)" fill="none" stroke="#373a47" stroke-width="1"/>
      <line id="Line_12" data-name="Line 12" x2="19.137" transform="translate(0 0.166)" fill="none" stroke="#373a47" stroke-width="1"/>
      <line id="Line_13" data-name="Line 13" x2="19.281" transform="translate(0 0.333)" fill="none" stroke="#373a47" stroke-width="1"/>
      <line id="Line_14" data-name="Line 14" x2="19.417" transform="translate(0.008 0.492)" fill="none" stroke="#373a47" stroke-width="1"/>
      <line id="Line_15" data-name="Line 15" x2="19.584" transform="translate(0 0.658)" fill="none" stroke="#373a47" stroke-width="1"/>
      <line id="Line_16" data-name="Line 16" x2="19.72" transform="translate(0 0.824)" fill="none" stroke="#373a47" stroke-width="1"/>
      <line id="Line_17" data-name="Line 17" x2="19.894" transform="translate(0 0.983)" fill="none" stroke="#373a47" stroke-width="1"/>
    </g>
  </g>
</svg>
