<svg width="48" height="52" viewBox="0 0 48 52" fill="none" xmlns="http://www.w3.org/2000/svg">
<path d="M9.09381 8.97409H28.3041C29.4684 8.97409 30.4155 8.02704 30.4155 6.86308V2.11102C30.4155 0.947051 29.4684 0 28.3041 0H9.09381C7.92947 0 6.98242 0.947051 6.98242 2.11102V6.86308C6.98242 8.02704 7.92947 8.97409 9.09381 8.97409Z" fill="black"/>
<path d="M6.10843 14.762H31.1836C31.4905 14.762 31.7393 14.5132 31.7393 14.2063C31.7393 13.8995 31.4905 13.6506 31.1836 13.6506L6.10843 13.651C5.80156 13.651 5.55273 13.8998 5.55273 14.2067C5.55273 14.5136 5.80156 14.762 6.10843 14.762Z" fill="black"/>
<path d="M6.10843 20.5518H31.1836C31.4905 20.5518 31.7393 20.303 31.7393 19.9961C31.7393 19.6893 31.4905 19.4404 31.1836 19.4404H6.10843C5.80156 19.4404 5.55273 19.6893 5.55273 19.9961C5.55273 20.303 5.80156 20.5518 6.10843 20.5518Z" fill="black"/>
<path d="M32.5274 5.04243H34.6203C35.5394 5.04243 36.287 5.79001 36.287 6.70913V20.5764C36.287 20.8833 36.5358 21.1321 36.8427 21.1321C37.1496 21.1321 37.3984 20.8833 37.3984 20.5764V6.70913C37.3984 5.17735 36.1521 3.9314 34.6203 3.9314H32.5274C32.2205 3.9314 31.9717 4.18023 31.9717 4.48709C31.9717 4.79359 32.2205 5.04243 32.5274 5.04243Z" fill="black"/>
<path d="M37.622 23.5177C37.622 23.9471 37.2734 24.2953 36.8432 24.2953C36.413 24.2953 36.0645 23.9471 36.0645 23.5177C36.0645 23.0882 36.413 22.74 36.8432 22.74C37.2734 22.74 37.622 23.0882 37.622 23.5177Z" fill="black"/>
<path d="M36.8425 45.3357C36.5356 45.3357 36.2868 45.5846 36.2868 45.8914V49.2223C36.2868 50.1414 35.5389 50.889 34.6201 50.889H2.77846C1.85932 50.889 1.11176 50.1414 1.11176 49.2223L1.1114 6.70948C1.1114 5.79034 1.85934 5.04279 2.77809 5.04279H4.871C5.17787 5.04279 5.4267 4.79396 5.4267 4.48709C5.4267 4.18023 5.17787 3.9314 4.871 3.9314L2.77847 3.93176C1.24669 3.93176 0.000362724 5.17772 0.000362724 6.70949L0 49.2223C0 50.7541 1.24633 52 2.7781 52H34.6198C36.1515 52 37.3979 50.7541 37.3979 49.2223V45.8911C37.3982 45.5842 37.1494 45.3357 36.8425 45.3357Z" fill="black"/>
<path d="M46.6692 43.8369L41.5453 38.7268C42.1406 37.5022 42.475 36.1287 42.475 34.6781C42.475 29.5528 38.3048 25.3831 33.1782 25.3831C28.0522 25.3831 23.8813 29.5529 23.8813 34.6781C23.8813 35.8134 24.0866 36.9012 24.4609 37.9077V45.1002H21.5348V25.7849C21.5348 25.4781 21.286 25.2292 20.9791 25.2292H16.3105C16.0037 25.2292 15.7548 25.4781 15.7548 25.7849L15.7552 45.1002H12.8291V31.2886C12.8291 30.9817 12.5803 30.7329 12.2734 30.7329L7.60481 30.7333C7.29795 30.7333 7.04912 30.9821 7.04912 31.289V45.1005H6.10745C5.80059 45.1005 5.55176 45.3494 5.55176 45.6562C5.55176 45.9631 5.80059 46.2119 6.10745 46.2119H31.1826C31.4895 46.2119 31.7383 45.9631 31.7383 45.6562C31.7383 45.3494 31.4895 45.1005 31.1826 45.1005H30.2409V43.4955C31.1648 43.8042 32.1518 43.9736 33.1779 43.9736C34.6368 43.9736 36.0181 43.6348 37.248 43.0334L42.3632 48.1348C43.55 49.3187 45.4815 49.3187 46.6683 48.1348C47.8504 47.0041 47.8504 44.9685 46.6687 43.8372L46.6692 43.8369ZM20.424 45.1002H16.8668V26.3412H20.424V45.1002ZM33.178 42.8625C28.6647 42.8625 24.9928 39.191 24.9928 34.6783C24.9928 30.1657 28.6647 26.4942 33.178 26.4942C37.6913 26.4942 41.3632 30.1657 41.3632 34.6783C41.3632 39.191 37.6913 42.8625 33.178 42.8625Z" fill="black"/>
</svg>
