<svg width="18" height="17" viewBox="0 0 18 17" fill="none" xmlns="http://www.w3.org/2000/svg">
<path d="M17.2816 13.1385C16.5233 11.5458 15.2259 10.5047 13.3701 10.0371C13.0914 9.96685 12.7948 10.0352 12.5718 10.2166L11.0267 11.4731C10.725 11.7184 10.2994 11.7491 9.96893 11.5441C8.34005 10.534 7.02328 9.21106 6.02086 7.57748C5.81751 7.24604 5.85015 6.82057 6.09691 6.52003L7.36059 4.98089C7.54302 4.75871 7.61281 4.46259 7.54389 4.18338C7.08505 2.32554 6.05003 1.02336 4.46092 0.257401C4.20454 0.133834 3.9017 0.140009 3.65039 0.273494C2.84941 0.698829 2.08284 1.18055 1.35647 1.72239C1.07829 1.92986 0.937361 2.27377 0.994412 2.61611C1.50847 5.70469 3.16894 8.95528 5.87333 11.6722C8.57781 14.3895 11.8204 16.0651 14.9064 16.5937C15.2485 16.6522 15.5929 16.5129 15.8018 16.2358C16.3472 15.512 16.8324 14.7477 17.2615 13.9487C17.3961 13.6979 17.4037 13.3951 17.2813 13.1382L17.2816 13.1385Z" fill="#373A47"/>
</svg>
