<svg width="18" height="17" viewBox="0 0 18 17" fill="none" xmlns="http://www.w3.org/2000/svg">
<path d="M17.008 13.1385C16.2503 11.5458 14.9539 10.5047 13.0996 10.0371C12.8211 9.96685 12.5248 10.0352 12.3019 10.2166L10.758 11.4731C10.4566 11.7184 10.0313 11.7491 9.70106 11.5441C8.07344 10.534 6.75771 9.21106 5.75607 7.57748C5.55287 7.24604 5.5855 6.82057 5.83205 6.52003L7.09475 4.98089C7.27704 4.75871 7.34677 4.46259 7.27791 4.18338C6.81942 2.32554 5.78521 1.02336 4.19735 0.257401C3.94116 0.133834 3.63856 0.140009 3.38745 0.273494C2.58709 0.698829 1.82112 1.18055 1.09532 1.72239C0.817357 1.92986 0.676536 2.27377 0.733542 2.61611C1.2472 5.70469 2.90638 8.95528 5.60865 11.6722C8.31102 14.3895 11.5511 16.0651 14.6347 16.5937C14.9765 16.6522 15.3207 16.5129 15.5294 16.2358C16.0744 15.512 16.5592 14.7477 16.9879 13.9487C17.1224 13.6979 17.13 13.3951 17.0077 13.1382L17.008 13.1385Z" fill="white"/>
</svg>
