<svg width="103" height="118" viewBox="0 0 103 118" fill="none" xmlns="http://www.w3.org/2000/svg">
<path d="M61 59.3823H0V117.114H61V59.3823Z" fill="#EBEBEB"/>
<path d="M30 101.971C38.2843 101.971 45 95.6152 45 87.7748C45 79.9345 38.2843 73.5786 30 73.5786C21.7157 73.5786 15 79.9345 15 87.7748C15 95.6152 21.7157 101.971 30 101.971Z" fill="#D62C28"/>
<path d="M76.4572 46.8266L85.2059 26.1806C87.7643 26.2631 90.3052 25.7535 92.6079 24.6962C94.9106 23.6389 96.9053 22.0658 98.4187 20.1138L72.2943 3.45746C70.9633 5.52153 70.1781 7.85857 70.0054 10.2705C69.8327 12.6825 70.2775 15.0983 71.3021 17.3131L54.3385 32.7215C51.3348 33.0073 48.4307 33.8977 45.8212 35.3329C43.2117 36.768 40.9573 38.7148 39.2097 41.0422L55.2211 51.2507L33.0582 82.3281L28.5335 91.4682L35.7991 84.0756L57.9607 53.0001L74.0773 63.2756C75.6632 60.8418 76.6943 58.1218 77.1045 55.2895C77.5147 52.4573 77.2949 49.5752 76.4592 46.8279L76.4572 46.8266Z" fill="#E4E4E4"/>
</svg>
