<?xml version="1.0" encoding="utf-8"?>
<!-- Generator: Adobe Illustrator 27.5.0, SVG Export Plug-In . SVG Version: 6.00 Build 0)  -->
<svg version="1.1" id="Layer_1" xmlns="http://www.w3.org/2000/svg" xmlns:xlink="http://www.w3.org/1999/xlink" x="0px" y="0px"
	 viewBox="0 0 548 505" style="enable-background:new 0 0 548 505;" xml:space="preserve">
<g>
	<path d="M538,350.9l-22.2-22.2c-5.3-5.3-14.6-5.3-19.9,0c-2.7,2.7-4.1,6.2-4.1,9.9c0,2.9,0.9,5.7,2.6,8.1h-77
		c-5.6-13.2-18.8-22.2-33.4-22.2c-3.7,0-7.4,0.6-10.9,1.7L227.8,155.5c2.6-5,3.9-10.6,3.9-16.3c0-20-16.3-36.2-36.2-36.2
		c-14.6,0-27.8,8.9-33.4,22.2H73.6c-5.6-13.2-18.8-22.2-33.4-22.2c-20,0-36.2,16.3-36.2,36.2s16.3,36.2,36.2,36.2
		c14.6,0,27.8-8.9,33.4-22.2H162c5.6,13.2,18.8,22.2,33.4,22.2c3.8,0,7.4-0.6,10.9-1.7l145.2,170.8c-2.5,5-3.9,10.6-3.9,16.3
		c0,20,16.3,36.2,36.2,36.2c14.6,0,27.8-8.9,33.4-22.2h77.1c-1.7,2.3-2.6,5.2-2.6,8.1c0,3.8,1.5,7.3,4.1,10c2.7,2.7,6.2,4.1,10,4.1
		c3.8,0,7.3-1.5,9.9-4.1l22.2-22.2C543.4,365.3,543.4,356.4,538,350.9L538,350.9z M39.8,152.7c-7.5,0-13.7-6.1-13.7-13.7
		s6.1-13.7,13.7-13.7c7.5,0,13.7,6.1,13.7,13.7C53.4,146.6,47.3,152.7,39.8,152.7z M203.9,148.9l0.6,0.7L203.9,148.9
		c-2.5,2.3-5.7,3.8-9.3,3.8c-7.5,0-13.7-6.1-13.7-13.7s6.1-13.7,13.7-13.7c7.5,0,13.7,6.1,13.7,13.7
		C208.3,142.9,206.6,146.4,203.9,148.9L203.9,148.9z M384,374.6c-7.5,0-13.7-6.1-13.7-13.7s6.1-13.7,13.7-13.7s13.7,6.1,13.7,13.7
		C397.7,368.5,391.5,374.6,384,374.6z"/>
	<path d="M40.2,85.6c4.6,0,9,0.6,13.3,1.7c0.3-1.2,0.7-2.4,0.7-3.6V61.5c0-16.7,13.6-30.3,30.3-30.3h377c16.7,0,30.3,13.6,30.3,30.3
		v243.9c0,1.8,0.4,3.4,1,5c4.1-1.8,8.5-2.9,13.1-2.9s9,1.1,13.1,2.9c0.6-1.6,1-3.2,1-5l0-243.9c0-32.2-26.2-58.4-58.4-58.4h-377
		c-32.2,0-58.4,26.2-58.4,58.4v22.2c0,1.3,0.4,2.6,0.8,3.8C31.2,86.4,35.6,85.6,40.2,85.6L40.2,85.6z"/>
	<path d="M505.8,414.4c-4.6,0-9-1.1-13.1-3c-0.6,1.5-1,3.2-1,4.9v22.2c0,16.7-13.6,30.3-30.3,30.3l-377,0
		c-16.7,0-30.3-13.6-30.3-30.3V194.6c0-1.3-0.4-2.5-0.7-3.6c-4.3,1.1-8.8,1.7-13.3,1.7c-4.6,0-9-0.8-13.3-1.9
		c-0.4,1.2-0.8,2.5-0.8,3.8v243.9c0,32.2,26.2,58.4,58.4,58.4h377c32.2,0,58.4-26.2,58.4-58.4v-22.2c0-1.7-0.4-3.4-1-4.9
		C514.9,413.3,510.4,414.4,505.8,414.4L505.8,414.4z"/>
</g>
</svg>
