<svg width="64" height="51" viewBox="0 0 64 51" fill="none" xmlns="http://www.w3.org/2000/svg">
<path d="M18.9229 42.3984H63.7845V43.2584H18.9229V42.3984Z" fill="black"/>
<path d="M2.83398 42.3984H4.87648V43.2584H2.83398V42.3984Z" fill="black"/>
<path d="M11.8351 2.72676C11.8933 3.3214 11.7158 3.90279 11.3358 4.3635C10.9558 4.82492 10.4191 5.10992 9.82405 5.16706C9.44084 5.20349 9.08227 5.24242 8.74512 5.28277C8.85476 6.48349 9.40261 7.55667 10.2276 8.34166H16.1011C16.1311 8.34166 16.1604 8.34345 16.1868 8.34559C16.3632 8.34809 16.5797 8.36416 16.8261 8.40631C17.7921 7.52167 18.3982 6.25063 18.3982 4.83743C18.3982 2.16564 16.2325 0 13.5608 0C12.4726 0 11.4683 0.359639 10.6604 0.965658C11.3036 1.30637 11.7608 1.95173 11.8351 2.72676Z" fill="black"/>
<path d="M11.4502 26.8853H12.4466V46.2926C12.4466 47.7611 13.637 48.9504 15.1051 48.9504C16.5726 48.9504 17.7629 47.7607 17.7629 46.2926V14.0434C18.5083 15.5701 19.2676 18.4944 19.2604 23.6999C19.2604 24.8853 19.2222 26.1874 19.1383 27.6178C19.0829 28.566 19.8061 29.3799 20.7547 29.4356C20.789 29.4374 20.8229 29.4385 20.8569 29.4385C21.7608 29.4385 22.5187 28.7328 22.5726 27.8192C22.6597 26.3281 22.7008 24.9589 22.7008 23.7C22.698 18.8286 22.1051 15.6026 21.2219 13.3705C20.3494 11.1477 19.103 9.89303 17.9466 9.31978C17.2127 8.94978 16.568 8.86622 16.1806 8.86121C16.1541 8.85979 16.1284 8.85729 16.102 8.85729H8.18884C8.16206 8.8455 8.13349 8.833 8.10384 8.81979C7.84421 8.7055 7.47599 8.53801 7.05599 8.33158C6.21886 7.92051 5.1682 7.33978 4.4067 6.76442C4.0367 6.49299 3.74456 6.21014 3.58063 6.01479C3.69813 5.94229 3.86563 5.85229 4.08955 5.76015C5.02915 5.35979 6.88312 4.92801 9.77525 4.65305C10.721 4.56198 11.4134 3.72131 11.3217 2.77595C11.2306 1.83022 10.3899 1.13812 9.44419 1.22955C7.13528 1.45383 5.37749 1.75847 4.01029 2.15342C2.64783 2.55984 1.6414 3.01341 0.861704 3.81731C0.346711 4.34409 -0.0115026 5.13195 0.000282395 5.89729C0.00242527 6.57942 0.232783 7.15652 0.509918 7.61832C0.792054 8.08367 1.13241 8.46402 1.4988 8.81117C2.23165 9.49866 3.08589 10.0629 3.92017 10.553C4.73444 11.0276 5.52874 11.4222 6.13335 11.704V46.2929C6.13335 47.7614 7.32374 48.9507 8.79188 48.9507C10.2594 48.9507 11.4497 47.761 11.4497 46.2929L11.4502 26.8853Z" fill="black"/>
<path d="M64.0002 4.77424V4.5596H61.9577V0.367462H61.7427V4.5596H53.3578V0.367188H53.1428V4.5596H44.7579V0.367188H44.5429V4.5596H36.158L36.1583 0.367462H35.9433V4.5596H27.5584L27.5588 0.367462H27.3438V4.5596H20.3567V4.77424H27.3434V13.1592H22.9363V13.3742H27.3434V21.7591H25.2295V21.9741H27.3434V30.3586H25.1577V30.5733H27.3434V38.9582H19.6035V39.1732H63.9998V38.9582H61.9573V30.5733H63.9998V30.3586H61.9573V21.9741H63.9998V21.7591H61.9573V13.3745H63.9998V13.1595H61.9573V4.77424H64.0002ZM36.1587 21.9745H44.5436V30.3587H36.1587V21.9745ZM53.1432 21.7595H44.759V13.3746H53.1432V21.7595ZM35.9438 13.3746V21.7595H27.5589L27.5593 13.3746H35.9438ZM35.9438 21.9745V30.359H27.5589V21.9745H35.9438ZM53.358 30.574H61.7429V38.959H53.358V30.574ZM53.358 30.359V21.9745H61.7429V30.359H53.358ZM61.7429 21.7592H53.358V13.3746H61.7429V21.7592ZM61.7429 13.1596H53.358V4.77432H61.7429V13.1596ZM53.1427 13.1596H44.7585V4.77432H53.1427V13.1596ZM44.5435 13.1596H36.1586V4.77432H44.5435V13.1596ZM35.9436 13.1596H27.5587L27.5591 4.77432H35.944L35.9436 13.1596ZM35.9436 30.5738V38.9587H27.5587V30.5738H35.9436ZM36.1586 38.9591V30.5742H44.5436V38.9591H36.1586ZM44.7585 38.9591V30.5742H53.1427V38.9591H44.7585Z" fill="black"/>
<path d="M49.6965 47.0072L48.1623 45.588L50.7436 46.1248L53.25 44.0112H49.0393L48.2783 44.5755L47.2572 44.3873L47.1008 44.0112H44.6504L43.2172 45.2194L43.6562 45.758L42.9572 46.1612L42.0872 46.1727L39.168 48.6337H40.7808L44.3283 46.9138L45.654 48.6337H47.7679L49.6965 47.0072Z" fill="black"/>
<path d="M41.6416 49.0901L45.2247 49.6636L44.078 47.8L41.6416 49.0901Z" fill="black"/>
<path d="M41.1304 45.167L39.9478 45.3606L39.7061 45.8881L40.5928 46.1345L41.3721 45.7298L41.1304 45.167Z" fill="black"/>
<path d="M55.1583 45.7301L54.9165 45.1672L53.734 45.3608L53.4922 45.8883L54.379 46.1347L55.1583 45.7301Z" fill="black"/>
<path d="M28.8754 44.9237L28.6336 44.3608L27.4511 44.5544L27.209 45.0819L28.0961 45.3283L28.8754 44.9237Z" fill="black"/>
<path d="M25.918 46.6437L25.6763 46.0808L24.4937 46.2744L24.252 46.8019L25.1387 47.0483L25.918 46.6437Z" fill="black"/>
<path d="M52.2831 46.8328L51.1005 47.0263L50.8584 47.5538L51.7455 47.8003L52.5248 47.3956L52.2831 46.8328Z" fill="black"/>
<path d="M32.181 48.311L31.9713 49.0728L34.3485 50.1207L35.7152 48.7086L35.0831 47.1286L35.8891 46.9943L36.9263 47.4568L38.6484 45.6775L32.7717 43.7961L27.6836 47.1825L30.4054 48.3825L31.2493 47.8811L32.181 48.311Z" fill="black"/>
<path d="M36.0508 47.6934L36.2915 49.6187L36.3197 49.8434L37.3676 49.4402L37.4751 48.3116L37.2397 48.2091L36.0508 47.6934Z" fill="black"/>
<path d="M27.9884 48.3376L26.6445 48.4184L26.8595 49.4394L28.687 49.2244L27.9884 48.3376Z" fill="black"/>
</svg>
